<svg xmlns="http://www.w3.org/2000/svg" viewBox="0 0 1136 106" width="1136" height="106" role="img"><title>Find UI pattern on live website → Extract HTML and CSS instantly → Paste into no-code builder → Customize in platform → Deploy production app</title><defs><marker id="arrowhead" markerWidth="10" markerHeight="7" refX="9" refY="3.5" orient="auto"><polygon points="0 0, 10 3.5, 0 7" fill="#111827"/></marker></defs><rect width="100%" height="100%" fill="#f8fafc"/><rect x="28" y="28" width="200" height="50" rx="10" ry="10" fill="#ffffff" stroke="#e5e7eb" stroke-width="2"/><rect x="252" y="28" width="200" height="50" rx="10" ry="10" fill="#ffffff" stroke="#e5e7eb" stroke-width="2"/><rect x="476" y="28" width="200" height="50" rx="10" ry="10" fill="#ffffff" stroke="#e5e7eb" stroke-width="2"/><rect x="700" y="28" width="192" height="50" rx="10" ry="10" fill="#ffffff" stroke="#e5e7eb" stroke-width="2"/><rect x="916" y="28" width="192" height="50" rx="10" ry="10" fill="#ffffff" stroke="#e5e7eb" stroke-width="2"/><line x1="228" y1="53" x2="244" y2="53" stroke="#111827" stroke-width="2" marker-end="url(#arrowhead)"/><line x1="452" y1="53" x2="468" y2="53" stroke="#111827" stroke-width="2" marker-end="url(#arrowhead)"/><line x1="676" y1="53" x2="692" y2="53" stroke="#111827" stroke-width="2" marker-end="url(#arrowhead)"/><line x1="892" y1="53" x2="908" y2="53" stroke="#111827" stroke-width="2" marker-end="url(#arrowhead)"/><text x="128" y="58" text-anchor="middle" font-family='system-ui, -apple-system, "Segoe UI", sans-serif' font-size="14" fill="#111827">Find UI pattern on live website</text><text x="352" y="58" text-anchor="middle" font-family='system-ui, -apple-system, "Segoe UI", sans-serif' font-size="14" fill="#111827">Extract HTML and CSS instantly</text><text x="576" y="58" text-anchor="middle" font-family='system-ui, -apple-system, "Segoe UI", sans-serif' font-size="14" fill="#111827">Paste into no-code builder</text><text x="796" y="58" text-anchor="middle" font-family='system-ui, -apple-system, "Segoe UI", sans-serif' font-size="14" fill="#111827">Customize in platform</text><text x="1012" y="58" text-anchor="middle" font-family='system-ui, -apple-system, "Segoe UI", sans-serif' font-size="14" fill="#111827">Deploy production app</text></svg>