<svg xmlns="http://www.w3.org/2000/svg" viewBox="0 0 1090 106" width="1090" height="106" role="img"><title>Find UI on website → DivMagic: Extract CSS only → Manually find HTML → Paste both into AI tool → AI reconstructs component</title><defs><marker id="arrowhead" markerWidth="10" markerHeight="7" refX="9" refY="3.5" orient="auto"><polygon points="0 0, 10 3.5, 0 7" fill="#111827"/></marker></defs><rect width="100%" height="100%" fill="#f8fafc"/><rect x="28" y="28" width="169" height="50" rx="10" ry="10" fill="#ffffff" stroke="#e5e7eb" stroke-width="2"/><rect x="221" y="28" width="200" height="50" rx="10" ry="10" fill="#ffffff" stroke="#e5e7eb" stroke-width="2"/><rect x="445" y="28" width="169" height="50" rx="10" ry="10" fill="#ffffff" stroke="#e5e7eb" stroke-width="2"/><rect x="638" y="28" width="200" height="50" rx="10" ry="10" fill="#ffffff" stroke="#e5e7eb" stroke-width="2"/><rect x="862" y="28" width="200" height="50" rx="10" ry="10" fill="#ffffff" stroke="#e5e7eb" stroke-width="2"/><line x1="197" y1="53" x2="213" y2="53" stroke="#111827" stroke-width="2" marker-end="url(#arrowhead)"/><line x1="421" y1="53" x2="437" y2="53" stroke="#111827" stroke-width="2" marker-end="url(#arrowhead)"/><line x1="614" y1="53" x2="630" y2="53" stroke="#111827" stroke-width="2" marker-end="url(#arrowhead)"/><line x1="838" y1="53" x2="854" y2="53" stroke="#111827" stroke-width="2" marker-end="url(#arrowhead)"/><text x="112.5" y="58" text-anchor="middle" font-family='system-ui, -apple-system, "Segoe UI", sans-serif' font-size="14" fill="#111827">Find UI on website</text><text x="321" y="58" text-anchor="middle" font-family='system-ui, -apple-system, "Segoe UI", sans-serif' font-size="14" fill="#111827">DivMagic: Extract CSS only</text><text x="529.5" y="58" text-anchor="middle" font-family='system-ui, -apple-system, "Segoe UI", sans-serif' font-size="14" fill="#111827">Manually find HTML</text><text x="738" y="58" text-anchor="middle" font-family='system-ui, -apple-system, "Segoe UI", sans-serif' font-size="14" fill="#111827">Paste both into AI tool</text><text x="962" y="58" text-anchor="middle" font-family='system-ui, -apple-system, "Segoe UI", sans-serif' font-size="14" fill="#111827">AI reconstructs component</text></svg>